<mxfile host="app.diagrams.net" modified="2024-04-19T17:15:07.201Z" agent="Mozilla/5.0 (Macintosh; Intel Mac OS X 10_15_7) AppleWebKit/537.36 (KHTML, like Gecko) Chrome/123.0.0.0 Safari/537.36" etag="-2hEpeindig1YgQJkvTB" version="24.2.5" type="google">
  <diagram name="Page-1" id="BBCR4RdnSlJhsHSjdPFm">
    <mxGraphModel grid="1" page="1" gridSize="10" guides="1" tooltips="1" connect="1" arrows="1" fold="1" pageScale="1" pageWidth="827" pageHeight="1169" math="0" shadow="0">
      <root>
        <mxCell id="0" />
        <mxCell id="1" parent="0" />
        <mxCell id="fkH6gr088aJ6c-8WLYkK-18" style="edgeStyle=none;curved=1;rounded=0;orthogonalLoop=1;jettySize=auto;html=1;entryX=0.5;entryY=0;entryDx=0;entryDy=0;fontSize=12;startSize=8;endSize=8;" edge="1" parent="1" source="fkH6gr088aJ6c-8WLYkK-1" target="fkH6gr088aJ6c-8WLYkK-2">
          <mxGeometry relative="1" as="geometry" />
        </mxCell>
        <mxCell id="fkH6gr088aJ6c-8WLYkK-1" value="Actor" style="shape=umlActor;verticalLabelPosition=bottom;verticalAlign=top;html=1;outlineConnect=0;" vertex="1" parent="1">
          <mxGeometry x="340" y="10" width="20" height="40" as="geometry" />
        </mxCell>
        <mxCell id="fkH6gr088aJ6c-8WLYkK-19" style="edgeStyle=none;curved=1;rounded=0;orthogonalLoop=1;jettySize=auto;html=1;entryX=0.5;entryY=0;entryDx=0;entryDy=0;fontSize=12;startSize=8;endSize=8;" edge="1" parent="1" source="fkH6gr088aJ6c-8WLYkK-2" target="fkH6gr088aJ6c-8WLYkK-6">
          <mxGeometry relative="1" as="geometry" />
        </mxCell>
        <mxCell id="fkH6gr088aJ6c-8WLYkK-23" style="edgeStyle=none;curved=1;rounded=0;orthogonalLoop=1;jettySize=auto;html=1;fontSize=12;startSize=8;endSize=8;entryX=0.592;entryY=0.006;entryDx=0;entryDy=0;entryPerimeter=0;" edge="1" parent="1" source="fkH6gr088aJ6c-8WLYkK-2" target="fkH6gr088aJ6c-8WLYkK-7">
          <mxGeometry relative="1" as="geometry">
            <mxPoint x="760" y="160" as="targetPoint" />
            <Array as="points">
              <mxPoint x="670" y="110" />
            </Array>
          </mxGeometry>
        </mxCell>
        <mxCell id="fkH6gr088aJ6c-8WLYkK-2" value="clarifi website" style="rounded=0;whiteSpace=wrap;html=1;" vertex="1" parent="1">
          <mxGeometry x="294" y="130" width="120" height="60" as="geometry" />
        </mxCell>
        <mxCell id="fkH6gr088aJ6c-8WLYkK-22" style="edgeStyle=none;curved=1;rounded=0;orthogonalLoop=1;jettySize=auto;html=1;entryX=0;entryY=0.5;entryDx=0;entryDy=0;fontSize=12;startSize=8;endSize=8;" edge="1" parent="1" source="fkH6gr088aJ6c-8WLYkK-5" target="fkH6gr088aJ6c-8WLYkK-2">
          <mxGeometry relative="1" as="geometry">
            <Array as="points">
              <mxPoint x="80" y="180" />
            </Array>
          </mxGeometry>
        </mxCell>
        <mxCell id="xsrfrFwxKxkhRsH1U3v0-1" style="edgeStyle=none;curved=1;rounded=0;orthogonalLoop=1;jettySize=auto;html=1;fontSize=12;startSize=8;endSize=8;" edge="1" parent="1" source="fkH6gr088aJ6c-8WLYkK-5" target="fkH6gr088aJ6c-8WLYkK-9">
          <mxGeometry relative="1" as="geometry" />
        </mxCell>
        <mxCell id="fkH6gr088aJ6c-8WLYkK-5" value="createUser" style="rounded=0;whiteSpace=wrap;html=1;" vertex="1" parent="1">
          <mxGeometry x="-200" y="230" width="120" height="60" as="geometry" />
        </mxCell>
        <mxCell id="xsrfrFwxKxkhRsH1U3v0-19" style="edgeStyle=none;curved=1;rounded=0;orthogonalLoop=1;jettySize=auto;html=1;entryX=0.5;entryY=0;entryDx=0;entryDy=0;fontSize=12;startSize=8;endSize=8;" edge="1" parent="1" source="fkH6gr088aJ6c-8WLYkK-6" target="xsrfrFwxKxkhRsH1U3v0-10">
          <mxGeometry relative="1" as="geometry" />
        </mxCell>
        <mxCell id="fkH6gr088aJ6c-8WLYkK-6" value="updateUser" style="rounded=0;whiteSpace=wrap;html=1;" vertex="1" parent="1">
          <mxGeometry x="294" y="240" width="120" height="60" as="geometry" />
        </mxCell>
        <mxCell id="fkH6gr088aJ6c-8WLYkK-7" value="expireUser" style="rounded=0;whiteSpace=wrap;html=1;" vertex="1" parent="1">
          <mxGeometry x="690" y="240" width="120" height="60" as="geometry" />
        </mxCell>
        <mxCell id="xsrfrFwxKxkhRsH1U3v0-2" style="edgeStyle=none;curved=1;rounded=0;orthogonalLoop=1;jettySize=auto;html=1;entryX=0.5;entryY=0;entryDx=0;entryDy=0;fontSize=12;startSize=8;endSize=8;" edge="1" parent="1" source="fkH6gr088aJ6c-8WLYkK-9" target="fkH6gr088aJ6c-8WLYkK-11">
          <mxGeometry relative="1" as="geometry" />
        </mxCell>
        <mxCell id="xsrfrFwxKxkhRsH1U3v0-6" style="edgeStyle=none;curved=1;rounded=0;orthogonalLoop=1;jettySize=auto;html=1;fontSize=12;startSize=8;endSize=8;" edge="1" parent="1" source="fkH6gr088aJ6c-8WLYkK-9" target="fkH6gr088aJ6c-8WLYkK-10">
          <mxGeometry relative="1" as="geometry" />
        </mxCell>
        <mxCell id="fkH6gr088aJ6c-8WLYkK-9" value="Entered all&amp;nbsp;&lt;div&gt;mandatory fields ?&lt;/div&gt;" style="rhombus;whiteSpace=wrap;html=1;" vertex="1" parent="1">
          <mxGeometry x="-215" y="340" width="135" height="100" as="geometry" />
        </mxCell>
        <mxCell id="fkH6gr088aJ6c-8WLYkK-10" value="Error: All mandatory fields are required." style="rounded=0;whiteSpace=wrap;html=1;" vertex="1" parent="1">
          <mxGeometry x="-10" y="360" width="120" height="60" as="geometry" />
        </mxCell>
        <mxCell id="xsrfrFwxKxkhRsH1U3v0-3" style="edgeStyle=none;curved=1;rounded=0;orthogonalLoop=1;jettySize=auto;html=1;entryX=0.5;entryY=0;entryDx=0;entryDy=0;fontSize=12;startSize=8;endSize=8;" edge="1" parent="1" source="fkH6gr088aJ6c-8WLYkK-11" target="fkH6gr088aJ6c-8WLYkK-13">
          <mxGeometry relative="1" as="geometry" />
        </mxCell>
        <mxCell id="xsrfrFwxKxkhRsH1U3v0-7" style="edgeStyle=none;curved=1;rounded=0;orthogonalLoop=1;jettySize=auto;html=1;fontSize=12;startSize=8;endSize=8;" edge="1" parent="1" source="fkH6gr088aJ6c-8WLYkK-11" target="fkH6gr088aJ6c-8WLYkK-12">
          <mxGeometry relative="1" as="geometry" />
        </mxCell>
        <mxCell id="fkH6gr088aJ6c-8WLYkK-11" value="1. stores IMP information to secrets Manager." style="rounded=0;whiteSpace=wrap;html=1;" vertex="1" parent="1">
          <mxGeometry x="-200" y="500" width="120" height="60" as="geometry" />
        </mxCell>
        <mxCell id="fkH6gr088aJ6c-8WLYkK-12" value="Error: Error Occurred while Storing Details" style="rounded=0;whiteSpace=wrap;html=1;" vertex="1" parent="1">
          <mxGeometry y="500" width="120" height="60" as="geometry" />
        </mxCell>
        <mxCell id="xsrfrFwxKxkhRsH1U3v0-4" style="edgeStyle=none;curved=1;rounded=0;orthogonalLoop=1;jettySize=auto;html=1;fontSize=12;startSize=8;endSize=8;" edge="1" parent="1" source="fkH6gr088aJ6c-8WLYkK-13" target="fkH6gr088aJ6c-8WLYkK-15">
          <mxGeometry relative="1" as="geometry" />
        </mxCell>
        <mxCell id="xsrfrFwxKxkhRsH1U3v0-8" style="edgeStyle=none;curved=1;rounded=0;orthogonalLoop=1;jettySize=auto;html=1;fontSize=12;startSize=8;endSize=8;" edge="1" parent="1" source="fkH6gr088aJ6c-8WLYkK-13" target="fkH6gr088aJ6c-8WLYkK-14">
          <mxGeometry relative="1" as="geometry" />
        </mxCell>
        <mxCell id="fkH6gr088aJ6c-8WLYkK-13" value="2. inserting record into dynamoDB" style="rounded=0;whiteSpace=wrap;html=1;" vertex="1" parent="1">
          <mxGeometry x="-200" y="600" width="120" height="60" as="geometry" />
        </mxCell>
        <mxCell id="fkH6gr088aJ6c-8WLYkK-14" value="Error occurred while storing details into dynamoDB" style="rounded=0;whiteSpace=wrap;html=1;" vertex="1" parent="1">
          <mxGeometry y="600" width="120" height="60" as="geometry" />
        </mxCell>
        <mxCell id="xsrfrFwxKxkhRsH1U3v0-5" style="edgeStyle=none;curved=1;rounded=0;orthogonalLoop=1;jettySize=auto;html=1;fontSize=12;startSize=8;endSize=8;" edge="1" parent="1" source="fkH6gr088aJ6c-8WLYkK-15" target="fkH6gr088aJ6c-8WLYkK-17">
          <mxGeometry relative="1" as="geometry" />
        </mxCell>
        <mxCell id="xsrfrFwxKxkhRsH1U3v0-9" style="edgeStyle=none;curved=1;rounded=0;orthogonalLoop=1;jettySize=auto;html=1;fontSize=12;startSize=8;endSize=8;" edge="1" parent="1" source="fkH6gr088aJ6c-8WLYkK-15" target="fkH6gr088aJ6c-8WLYkK-16">
          <mxGeometry relative="1" as="geometry" />
        </mxCell>
        <mxCell id="fkH6gr088aJ6c-8WLYkK-15" value="3. Creating DB/User in Mysql and PostgresSQL" style="rounded=0;whiteSpace=wrap;html=1;" vertex="1" parent="1">
          <mxGeometry x="-200" y="700" width="120" height="60" as="geometry" />
        </mxCell>
        <mxCell id="fkH6gr088aJ6c-8WLYkK-16" value="Error occurred while creating DB." style="rounded=0;whiteSpace=wrap;html=1;" vertex="1" parent="1">
          <mxGeometry y="700" width="120" height="60" as="geometry" />
        </mxCell>
        <mxCell id="fkH6gr088aJ6c-8WLYkK-17" value="User Successfully created&amp;nbsp;" style="rounded=0;whiteSpace=wrap;html=1;" vertex="1" parent="1">
          <mxGeometry x="-110" y="800" width="120" height="60" as="geometry" />
        </mxCell>
        <mxCell id="xsrfrFwxKxkhRsH1U3v0-20" style="edgeStyle=none;curved=1;rounded=0;orthogonalLoop=1;jettySize=auto;html=1;entryX=0.5;entryY=0;entryDx=0;entryDy=0;fontSize=12;startSize=8;endSize=8;" edge="1" parent="1" source="xsrfrFwxKxkhRsH1U3v0-10" target="xsrfrFwxKxkhRsH1U3v0-13">
          <mxGeometry relative="1" as="geometry" />
        </mxCell>
        <mxCell id="xsrfrFwxKxkhRsH1U3v0-24" style="edgeStyle=none;curved=1;rounded=0;orthogonalLoop=1;jettySize=auto;html=1;fontSize=12;startSize=8;endSize=8;" edge="1" parent="1" source="xsrfrFwxKxkhRsH1U3v0-10" target="xsrfrFwxKxkhRsH1U3v0-11">
          <mxGeometry relative="1" as="geometry" />
        </mxCell>
        <mxCell id="xsrfrFwxKxkhRsH1U3v0-10" value="accound_id / user_name" style="rounded=0;whiteSpace=wrap;html=1;" vertex="1" parent="1">
          <mxGeometry x="294" y="360" width="120" height="60" as="geometry" />
        </mxCell>
        <mxCell id="xsrfrFwxKxkhRsH1U3v0-11" value="&lt;span style=&quot;color: rgb(0, 0, 0); font-family: Helvetica; font-size: 12px; font-style: normal; font-variant-ligatures: normal; font-variant-caps: normal; font-weight: 400; letter-spacing: normal; orphans: 2; text-align: center; text-indent: 0px; text-transform: none; widows: 2; word-spacing: 0px; -webkit-text-stroke-width: 0px; white-space: normal; background-color: rgb(251, 251, 251); text-decoration-thickness: initial; text-decoration-style: initial; text-decoration-color: initial; display: inline !important; float: none;&quot;&gt;Error: All mandatory fields are required.&lt;/span&gt;" style="rounded=0;whiteSpace=wrap;html=1;" vertex="1" parent="1">
          <mxGeometry x="500" y="360" width="120" height="60" as="geometry" />
        </mxCell>
        <mxCell id="xsrfrFwxKxkhRsH1U3v0-21" style="edgeStyle=none;curved=1;rounded=0;orthogonalLoop=1;jettySize=auto;html=1;entryX=0.5;entryY=0;entryDx=0;entryDy=0;fontSize=12;startSize=8;endSize=8;" edge="1" parent="1" source="xsrfrFwxKxkhRsH1U3v0-13" target="xsrfrFwxKxkhRsH1U3v0-15">
          <mxGeometry relative="1" as="geometry" />
        </mxCell>
        <mxCell id="xsrfrFwxKxkhRsH1U3v0-25" style="edgeStyle=none;curved=1;rounded=0;orthogonalLoop=1;jettySize=auto;html=1;entryX=0;entryY=0.5;entryDx=0;entryDy=0;fontSize=12;startSize=8;endSize=8;" edge="1" parent="1" source="xsrfrFwxKxkhRsH1U3v0-13" target="xsrfrFwxKxkhRsH1U3v0-14">
          <mxGeometry relative="1" as="geometry" />
        </mxCell>
        <mxCell id="xsrfrFwxKxkhRsH1U3v0-13" value="Fetch Details From DB" style="rhombus;whiteSpace=wrap;html=1;" vertex="1" parent="1">
          <mxGeometry x="304" y="480" width="100" height="100" as="geometry" />
        </mxCell>
        <mxCell id="xsrfrFwxKxkhRsH1U3v0-14" value="Given User Doesn&#39;t exiists in DB" style="rounded=0;whiteSpace=wrap;html=1;" vertex="1" parent="1">
          <mxGeometry x="500" y="500" width="120" height="60" as="geometry" />
        </mxCell>
        <mxCell id="xsrfrFwxKxkhRsH1U3v0-22" style="edgeStyle=none;curved=1;rounded=0;orthogonalLoop=1;jettySize=auto;html=1;entryX=0.5;entryY=0;entryDx=0;entryDy=0;fontSize=12;startSize=8;endSize=8;" edge="1" parent="1" source="xsrfrFwxKxkhRsH1U3v0-15" target="xsrfrFwxKxkhRsH1U3v0-16">
          <mxGeometry relative="1" as="geometry" />
        </mxCell>
        <mxCell id="xsrfrFwxKxkhRsH1U3v0-15" value="Display and allow user to modify" style="rounded=0;whiteSpace=wrap;html=1;" vertex="1" parent="1">
          <mxGeometry x="294" y="640" width="120" height="60" as="geometry" />
        </mxCell>
        <mxCell id="xsrfrFwxKxkhRsH1U3v0-23" style="edgeStyle=none;curved=1;rounded=0;orthogonalLoop=1;jettySize=auto;html=1;entryX=0.5;entryY=0;entryDx=0;entryDy=0;fontSize=12;startSize=8;endSize=8;" edge="1" parent="1" source="xsrfrFwxKxkhRsH1U3v0-16" target="xsrfrFwxKxkhRsH1U3v0-18">
          <mxGeometry relative="1" as="geometry" />
        </mxCell>
        <mxCell id="xsrfrFwxKxkhRsH1U3v0-26" style="edgeStyle=none;curved=1;rounded=0;orthogonalLoop=1;jettySize=auto;html=1;fontSize=12;startSize=8;endSize=8;" edge="1" parent="1" source="xsrfrFwxKxkhRsH1U3v0-16" target="xsrfrFwxKxkhRsH1U3v0-17">
          <mxGeometry relative="1" as="geometry">
            <mxPoint x="510" y="800.0000000000002" as="targetPoint" />
          </mxGeometry>
        </mxCell>
        <mxCell id="xsrfrFwxKxkhRsH1U3v0-16" value="update record in dynamoDB" style="rounded=0;whiteSpace=wrap;html=1;" vertex="1" parent="1">
          <mxGeometry x="294" y="770" width="120" height="60" as="geometry" />
        </mxCell>
        <mxCell id="xsrfrFwxKxkhRsH1U3v0-17" value="Error while updating record in DB" style="rounded=0;whiteSpace=wrap;html=1;" vertex="1" parent="1">
          <mxGeometry x="520" y="770" width="120" height="60" as="geometry" />
        </mxCell>
        <mxCell id="xsrfrFwxKxkhRsH1U3v0-18" value="User Updated Successfully" style="rounded=0;whiteSpace=wrap;html=1;" vertex="1" parent="1">
          <mxGeometry x="294" y="880" width="120" height="60" as="geometry" />
        </mxCell>
      </root>
    </mxGraphModel>
  </diagram>
</mxfile>
